<svg width="424" height="50" viewBox="0 0 424 50" fill="none" xmlns="http://www.w3.org/2000/svg">
<path d="M314.298 10.733C320.008 10.3142 325.851 10.162 331.732 10.2381C331.998 10.2381 332.265 10.2381 332.512 10.2571C333.311 10.2762 334.111 10.2952 334.891 10.3142C335.291 10.3333 335.71 10.3333 336.109 10.3523C337.023 10.3904 337.917 10.4284 338.831 10.4665C339.364 10.4855 339.916 10.5236 340.449 10.5426C341.058 10.5807 341.667 10.5997 342.276 10.6378C342.694 10.6568 343.094 10.6759 343.494 10.7139C363.268 12.0081 382.167 15.7575 394.881 20.9723C380.283 -11.3254 306.019 -1.63799 279.85 18.6884C279.241 19.1642 278.689 19.621 278.137 20.1158C278.023 20.211 277.909 20.3062 277.795 20.4204C277.243 20.9152 276.729 21.391 276.234 21.9049C275.758 22.3807 275.32 22.8755 274.902 23.3703C274.806 23.4845 274.692 23.6178 274.597 23.732C274.197 24.2268 273.798 24.7216 273.455 25.2355C271.914 27.5003 271.152 29.6129 271.019 31.5732C271 31.8587 271 32.1252 271 32.4106C271.057 34.4471 271.761 36.2742 272.941 37.911C274.121 39.5477 275.796 40.9751 277.795 42.2122C278.594 42.7071 279.45 43.1829 280.345 43.6206C281.239 44.0584 282.172 44.4771 283.143 44.8577C283.618 45.048 284.113 45.2384 284.608 45.4097C285.598 45.7713 286.625 46.0948 287.653 46.3993C288.167 46.5516 288.7 46.6848 289.214 46.8371C290.261 47.1035 291.326 47.3509 292.392 47.5793C296.655 48.4738 300.919 48.9496 304.554 49.0638C305.467 49.1019 306.324 49.1019 307.142 49.0829C307.961 49.0638 308.722 49.0258 309.445 48.9687C300.538 48.5119 279.222 40.88 277.852 29.2703C276.519 18.0223 292.906 12.3697 314.298 10.733Z" fill="#46C0C1"/>
<path d="M291.365 20.0396V32.1441H291.518L299.873 20.0396H302.766V37.7967H299.549V25.6922H299.397L291.023 37.7967H288.168V20.0396H291.365Z" fill="#333333"/>
<path d="M316.127 34.1424L320.085 24.474H323.892V37.7966H320.904V28.7182L317.23 37.7966H315.042L311.502 28.8133V37.7966H308.476V24.474H312.282L316.127 34.1424Z" fill="#333333"/>
<path d="M329.41 37.7966V24.474H340.658V37.7966H337.632V27.0433H332.417V37.7966H329.41Z" fill="#333333"/>
<path d="M345.301 37.7966L345.282 35.2082H345.739C346.196 35.2082 346.576 35.0749 346.843 34.7704C347.109 34.4849 347.319 33.9901 347.471 33.2859C347.604 32.5817 347.699 31.6111 347.756 30.374L347.985 24.474H357.691V37.7966H354.665V27.0624H350.84L350.63 31.3446C350.535 33.5714 350.135 35.1891 349.45 36.2359C348.765 37.2827 347.699 37.7966 346.272 37.7966H345.301Z" fill="#333333"/>
<path d="M369.015 38.044C367.721 38.044 366.579 37.7585 365.628 37.1875C364.676 36.6166 363.934 35.8172 363.42 34.7895C362.887 33.7617 362.64 32.5627 362.64 31.1924C362.64 29.8221 362.906 28.604 363.42 27.5763C363.934 26.5485 364.676 25.7492 365.628 25.1592C366.579 24.5882 367.702 24.3027 369.015 24.3027C370.31 24.3027 371.452 24.5882 372.403 25.1592C373.355 25.7302 374.097 26.5295 374.611 27.5763C375.125 28.604 375.391 29.803 375.391 31.1924C375.391 32.5627 375.125 33.7617 374.611 34.7895C374.097 35.8172 373.355 36.6166 372.403 37.1875C371.452 37.7585 370.329 38.044 369.015 38.044ZM369.034 35.5317C369.739 35.5317 370.329 35.3414 370.804 34.9417C371.28 34.5611 371.623 34.0282 371.851 33.3621C372.08 32.6959 372.194 31.9727 372.194 31.1543C372.194 30.3359 372.08 29.5937 371.851 28.9466C371.623 28.2805 371.261 27.7666 370.804 27.3669C370.329 26.9672 369.739 26.7769 369.034 26.7769C368.311 26.7769 367.721 26.9672 367.245 27.3669C366.77 27.7666 366.408 28.2805 366.18 28.9466C365.951 29.6127 365.818 30.355 365.818 31.1543C365.818 31.9537 365.932 32.6959 366.18 33.3621C366.408 34.0282 366.77 34.5421 367.245 34.9417C367.721 35.3414 368.33 35.5317 369.034 35.5317Z" fill="#333333"/>
<path d="M380.396 37.7966V24.474H385.992C387.572 24.474 388.809 24.7975 389.722 25.4256C390.636 26.0537 391.093 26.9292 391.093 28.0521C391.093 28.7943 390.826 29.4033 390.312 29.8791C389.798 30.3359 389.094 30.6595 388.2 30.8308C389.246 30.9259 390.103 31.2685 390.75 31.8775C391.397 32.4866 391.74 33.2479 391.74 34.1804C391.74 35.2843 391.321 36.1598 390.465 36.8069C389.608 37.454 388.409 37.7966 386.848 37.7966H380.396ZM383.346 29.9933H386.068C386.696 29.9933 387.21 29.8601 387.572 29.5746C387.933 29.3082 388.124 28.9275 388.124 28.4517C388.124 27.995 387.933 27.6333 387.553 27.3669C387.172 27.1004 386.658 26.9863 386.011 26.9863H383.366V29.9933H383.346ZM383.346 35.3224H386.867C387.438 35.3224 387.895 35.1891 388.238 34.9037C388.561 34.6372 388.733 34.2566 388.733 33.7808C388.733 33.2288 388.561 32.7911 388.238 32.4866C387.914 32.163 387.457 32.0108 386.867 32.0108H383.346V35.3224Z" fill="#333333"/>
<path d="M399.716 33.5333L405.045 24.474H408.28V37.7966H405.254V28.7182L399.925 37.7966H396.689V24.474H399.716V33.5333Z" fill="#333333"/>
<path d="M412.353 27.0433V24.474H424V27.0433H419.699V37.7966H416.654V27.0433H412.353Z" fill="#333333"/>
<path d="M2.66318 38.4246L4.65235 33.9038L0 24.3525H2.28507L4.78386 29.3829L5.81954 31.6351L6.72371 29.4158L8.89371 24.3525H11.1952L4.8825 38.4246H2.66318Z" fill="#46C0C1"/>
<path d="M22.3458 30.2707H24.4501C25.8474 30.2707 26.3735 29.1199 26.3735 28.1993C26.3735 26.6704 25.0254 26.1444 23.7103 26.1444C22.6417 26.1444 21.5567 26.7526 21.2937 27.8376L19.4689 27.3938C19.9785 25.2731 21.8362 24.2045 23.7103 24.2045C26.1269 24.2045 28.3626 25.3553 28.3955 28.1993C28.3955 29.3007 28.1325 30.4515 27.1132 31.1255C28.3791 31.8653 29.0202 32.9996 29.0038 34.4956C28.9873 36.5176 27.2119 38.5726 23.8418 38.5726C20.8334 38.5726 19.4032 36.83 19.0908 34.9066L20.9813 34.5613C21.1622 35.6792 22.0828 36.682 23.8582 36.682C26.094 36.682 27.0146 35.4655 27.0146 34.2983C27.0146 33.2955 26.3077 32.1283 24.4829 32.1283H22.3787V30.2707H22.3458Z" fill="#46C0C1"/>
<path d="M43.5968 36.4191V40.6605H41.6076V38.4083H33.2564V40.6605H31.2344V36.7808L32.3523 36.5671C33.1578 35.7287 33.4373 33.9204 33.5523 32.6381L34.0948 24.3691H42.446V36.4356H43.5968V36.4191ZM40.3582 36.4191V26.3089H36.0182L35.7223 31.3065C35.6237 33.4929 35.5415 35.2026 34.6373 36.4191H40.3582Z" fill="#46C0C1"/>
<path d="M47.9804 26.2921C49.2627 24.9934 51.071 24.1714 53.0437 24.1714C55.0329 24.1714 56.8248 24.9934 58.1235 26.2921C59.3893 27.5908 60.2113 29.3827 60.2113 31.3718C60.2113 33.361 59.3893 35.1529 58.1235 36.4516C56.8248 37.7832 55.0329 38.5723 53.0437 38.5723C51.071 38.5723 49.2627 37.7668 47.9804 36.4516C46.7145 35.1529 45.8926 33.361 45.8926 31.3718C45.8926 29.3827 46.7145 27.6072 47.9804 26.2921ZM56.6768 27.7387C55.7398 26.8017 54.4246 26.2099 53.0437 26.2099C51.6628 26.2099 50.3805 26.7853 49.4435 27.7387C48.5229 28.6593 47.9311 29.9416 47.9311 31.3718C47.9311 32.8021 48.5064 34.0843 49.4435 35.0049C50.3641 35.942 51.6464 36.5338 53.0437 36.5338C54.4246 36.5338 55.7398 35.9584 56.6768 35.0049C57.581 34.0843 58.1564 32.8185 58.1564 31.3718C58.1564 29.9252 57.581 28.6758 56.6768 27.7387Z" fill="#46C0C1"/>
<path d="M68.1778 24.3525C71.2026 24.3525 72.7315 26.7033 72.7315 29.0541C72.7315 31.405 71.2026 33.7229 68.1778 33.7229H65.0871V38.4082H63.0322V24.3525H68.1778ZM68.1778 31.7173C69.8874 31.7173 70.7259 30.3857 70.7259 29.0706C70.7259 27.7225 69.8874 26.4074 68.1778 26.4074H65.0871V31.7338H68.1778V31.7173Z" fill="#46C0C1"/>
<path d="M77.329 26.2921C78.6113 24.9934 80.4196 24.1714 82.3923 24.1714C84.3815 24.1714 86.1734 24.9934 87.4721 26.2921C88.7379 27.5908 89.5599 29.3827 89.5599 31.3718C89.5599 33.361 88.7379 35.1529 87.4721 36.4516C86.1734 37.7832 84.3815 38.5723 82.3923 38.5723C80.4196 38.5723 78.6113 37.7668 77.329 36.4516C76.0632 35.1529 75.2412 33.361 75.2412 31.3718C75.2412 29.3827 76.0632 27.6072 77.329 26.2921ZM86.0254 27.7387C85.0884 26.8017 83.7733 26.2099 82.3923 26.2099C81.0114 26.2099 79.7292 26.7853 78.7921 27.7387C77.8715 28.6593 77.2797 29.9416 77.2797 31.3718C77.2797 32.8021 77.8551 34.0843 78.7921 35.0049C79.7127 35.942 80.995 36.5338 82.3923 36.5338C83.7733 36.5338 85.0884 35.9584 86.0254 35.0049C86.9296 34.0843 87.505 32.8185 87.505 31.3718C87.505 29.9252 86.9296 28.6758 86.0254 27.7387Z" fill="#46C0C1"/>
<path d="M98.1522 24.3525C101.489 24.3525 103.183 28.6925 100.519 30.6816C102.131 31.3721 102.722 32.8516 102.722 34.1668C102.722 36.271 101.341 38.4082 98.6454 38.4082H92.2998V24.3525H98.1522ZM94.3218 29.9583H98.1194C100.322 29.9583 100.372 26.2923 98.1522 26.2923H94.3218V29.9583ZM94.3218 36.4354H98.6618C100.026 36.4354 100.717 35.2847 100.717 34.1832C100.717 33.0818 100.026 31.9475 98.6618 31.9475H94.3218V36.4354Z" fill="#46C0C1"/>
<path d="M106.312 38.4082V24.3525H108.366V29.0377H111.457C114.482 29.0377 116.011 31.3721 116.011 33.7065C116.011 36.0573 114.482 38.4082 111.457 38.4082H106.312ZM108.366 31.0433V36.4025H111.457C113.167 36.4025 114.005 35.0381 114.005 33.69C114.005 32.3585 113.167 31.0433 111.457 31.0433H108.366Z" fill="#46C0C1"/>
<path d="M125.457 32.2435L120.344 38.4083H117.714L122.153 33.1313C119.736 32.7038 118.519 30.8298 118.519 28.8406C118.519 26.6048 120.048 24.3691 123.09 24.3691H128.202V38.4248H126.18V26.424H123.09C121.38 26.424 120.541 27.6405 120.541 28.857C120.541 30.0735 121.38 31.3065 123.09 31.3065H125.457V32.2435Z" fill="#46C0C1"/>
<path d="M137.908 36.3697H144.418V38.4082H135.854V24.3525H144.402V26.3745H137.908V30.3364H144.27V32.3749H137.908V36.3697Z" fill="#46C0C1"/>
<path d="M148.73 26.3742C149.963 25.1083 151.689 24.2864 153.596 24.2864C156.802 24.2864 159.334 26.292 160.139 29.4648H158.134C157.394 27.3605 155.668 26.292 153.596 26.292C152.248 26.292 151.032 26.8674 150.144 27.8044C149.256 28.725 148.697 29.9744 148.697 31.4211C148.697 32.8184 149.256 34.0678 150.144 34.9884C151.032 35.909 152.248 36.5008 153.596 36.5008C155.717 36.5008 157.525 35.2843 158.249 33.1472H160.238C159.432 36.3364 156.868 38.5064 153.596 38.5064C151.689 38.5064 149.963 37.7009 148.73 36.4186C147.53 35.1364 146.725 33.3609 146.725 31.4211C146.725 29.4319 147.53 27.6564 148.73 26.3742Z" fill="#46C0C1"/>
<path d="M165.225 38.4082V26.2759H160.967V24.3525H171.488V26.2759H167.247V38.4082H165.225Z" fill="#46C0C1"/>
<path d="M174.114 38.4082V24.3525H176.169V29.0377H179.26C182.285 29.0377 183.813 31.3721 183.813 33.7065C183.813 36.0573 182.285 38.4082 179.26 38.4082H174.114ZM176.153 31.0433V36.4025H179.243C180.953 36.4025 181.791 35.0381 181.791 33.69C181.791 32.3585 180.953 31.0433 179.243 31.0433H176.153Z" fill="#46C0C1"/>
<path d="M202.01 38.4082V28.5938L195.237 38.4082H193.626V24.3525H195.632V34.249L202.47 24.3525H204.049V38.4082H202.01Z" fill="#46C0C1"/>
<path d="M211.196 38.4081H209.174V24.3524H210.818L215.454 31.1748L220.09 24.3524H221.701V38.4081H219.695V28.5116L216.013 33.9695H214.878L211.196 28.5116V38.4081Z" fill="#46C0C1"/>
<path d="M232.255 32.2435L227.142 38.4083H224.512L228.95 33.1312C226.534 32.7038 225.317 30.8297 225.317 28.8405C225.317 26.6048 226.846 24.369 229.887 24.369H235V38.4247H232.978V26.4239H229.887C228.178 26.4239 227.339 27.6405 227.339 28.857C227.339 30.0735 228.178 31.3064 229.887 31.3064H232.255V32.2435Z" fill="#46C0C1"/>
<line x1="244" y1="31.5" x2="264" y2="31.5" stroke="#46C0C1"/>
</svg>
